<svg width="18" height="18" viewBox="0 0 18 18" fill="none" xmlns="http://www.w3.org/2000/svg">
<path d="M11.655 8.4675L7.41 4.23C7.34028 4.1597 7.25733 4.10391 7.16593 4.06583C7.07454 4.02775 6.97651 4.00815 6.8775 4.00815C6.77849 4.00815 6.68046 4.02775 6.58907 4.06583C6.49767 4.10391 6.41472 4.1597 6.345 4.23C6.20531 4.37052 6.12691 4.56061 6.12691 4.75875C6.12691 4.95689 6.20531 5.14698 6.345 5.2875L10.0575 9.0375L6.345 12.75C6.20531 12.8905 6.12691 13.0806 6.12691 13.2787C6.12691 13.4769 6.20531 13.667 6.345 13.8075C6.41446 13.8784 6.4973 13.9347 6.5887 13.9734C6.68011 14.012 6.77827 14.0321 6.8775 14.0325C6.97673 14.0321 7.07489 14.012 7.1663 13.9734C7.25771 13.9347 7.34054 13.8784 7.41 13.8075L11.655 9.57C11.7311 9.49977 11.7919 9.41453 11.8334 9.31965C11.875 9.22478 11.8965 9.12232 11.8965 9.01875C11.8965 8.91517 11.875 8.81272 11.8334 8.71784C11.7919 8.62297 11.7311 8.53773 11.655 8.4675V8.4675Z" fill="#05040D"/>
</svg>
