<svg width="48" height="48" viewBox="0 0 48 48" fill="none" xmlns="http://www.w3.org/2000/svg">
<path d="M25.4119 24L29.7119 19.71C29.9002 19.5217 30.006 19.2663 30.006 19C30.006 18.7337 29.9002 18.4783 29.7119 18.29C29.5236 18.1017 29.2682 17.9959 29.0019 17.9959C28.7356 17.9959 28.4802 18.1017 28.2919 18.29L24.0019 22.59L19.7119 18.29C19.5236 18.1017 19.2682 17.9959 19.0019 17.9959C18.7356 17.9959 18.4802 18.1017 18.2919 18.29C18.1036 18.4783 17.9978 18.7337 17.9978 19C17.9978 19.2663 18.1036 19.5217 18.2919 19.71L22.5919 24L18.2919 28.29C18.1982 28.383 18.1238 28.4936 18.073 28.6154C18.0222 28.7373 17.9961 28.868 17.9961 29C17.9961 29.132 18.0222 29.2627 18.073 29.3846C18.1238 29.5064 18.1982 29.617 18.2919 29.71C18.3849 29.8037 18.4955 29.8781 18.6173 29.9289C18.7392 29.9797 18.8699 30.0058 19.0019 30.0058C19.1339 30.0058 19.2646 29.9797 19.3865 29.9289C19.5083 29.8781 19.6189 29.8037 19.7119 29.71L24.0019 25.41L28.2919 29.71C28.3849 29.8037 28.4955 29.8781 28.6173 29.9289C28.7392 29.9797 28.8699 30.0058 29.0019 30.0058C29.1339 30.0058 29.2646 29.9797 29.3865 29.9289C29.5083 29.8781 29.6189 29.8037 29.7119 29.71C29.8056 29.617 29.88 29.5064 29.9308 29.3846C29.9816 29.2627 30.0077 29.132 30.0077 29C30.0077 28.868 29.9816 28.7373 29.9308 28.6154C29.88 28.4936 29.8056 28.383 29.7119 28.29L25.4119 24Z" fill="black"/>
</svg>
